<svg id="Layer_1" data-name="Layer 1" xmlns="http://www.w3.org/2000/svg" viewBox="0 0 867.32 170.37"><defs><style>.cls-1{fill:#ff2b06;}.cls-2{isolation:isolate;font-size:146.9px;fill:#fff;font-family:Helvetica;}</style></defs><path class="cls-1" d="M29.67,47.67H0V20.59H91.88V47.71H62.23v78.7H29.67Z" transform="translate(0 0)"/><path class="cls-1" d="M96.94,20.59h89.19V47.71H129.54V60.9h56.59V86.1H129.54V99.29h56.61v27.12H96.94Z" transform="translate(0 0)"/><path class="cls-1" d="M191.67,20.59h53.5c35.27,0,47.73,26.08,47.73,52.75,0,32.47-17.19,53.07-54.1,53.07H191.67Zm32.6,78.7H237c20.31,0,23.28-16.46,23.28-26.4,0-6.66-2.09-25.18-25.66-25.18H224.22Z" transform="translate(0 0)"/><path class="cls-1" d="M339.67,85.59,329.73,69.1l-9.68,16.49H296.16l22.68-33.35L297,20.35H320.9l8.85,15.76,9.1-15.76h23.89L340.91,52.24l22.68,33.35Z" transform="translate(0 0)"/><text class="cls-2" transform="translate(377.56 126.19)">VSSUT</text></svg>