<svg id="Layer_1" data-name="Layer 1" xmlns="http://www.w3.org/2000/svg" viewBox="0 0 868.52 307.21"><defs><style>.cls-1{font-size:146px;font-family:Arial-Black, Arial;font-weight:800;}.cls-1,.cls-5{fill:#fff;}.cls-2{letter-spacing:0.03em;}.cls-3{letter-spacing:-0.02em;}.cls-4{fill:#ff2b06;}.cls-5{isolation:isolate;font-size:146.9px;font-family:Helvetica;}</style></defs><text class="cls-1" transform="translate(0 137.95)"><tspan class="cls-2">W</tspan><tspan x="150.85" y="0">h</tspan><tspan class="cls-3" x="248.23" y="0">a</tspan><tspan x="343.11" y="0">t is</tspan></text><path class="cls-4" d="M127,381.32H97.31V354.24h91.88v27.12H159.54v78.7H127Z" transform="translate(-96.11 -196.81)"/><path class="cls-4" d="M194.25,354.24h89.19v27.12H226.85v13.19h56.59v25.2H226.85v13.19h56.61v27.12H194.25Z" transform="translate(-96.11 -196.81)"/><path class="cls-4" d="M289,354.24h53.5c35.27,0,47.73,26.08,47.73,52.75,0,32.47-17.19,53.07-54.1,53.07H289Zm32.6,78.7h12.7c20.31,0,23.28-16.46,23.28-26.4,0-6.66-2.09-25.18-25.66-25.18H321.53Z" transform="translate(-96.11 -196.81)"/><path class="cls-4" d="M437,419.24,427,402.75l-9.68,16.49H393.47l22.68-33.35L394.32,354h23.89l8.85,15.76,9.1-15.76h23.89l-21.83,31.89,22.68,33.35Z" transform="translate(-96.11 -196.81)"/><text class="cls-5" transform="translate(378.76 263.03)">VSSUT</text></svg>