<svg id="Layer_1" data-name="Layer 1" xmlns="http://www.w3.org/2000/svg" viewBox="0 0 1000.87 182.72"><defs><style>.cls-1{fill:#ff2b06;}.cls-2{font-size:146px;fill:#fff;font-family:Arial-Black, Arial;font-weight:800;}.cls-3{letter-spacing:0.03em;}.cls-4{letter-spacing:-0.02em;}</style></defs><path class="cls-1" d="M763,256.28H733.39V229.16h91.88v27.12H795.63V335H763Z" transform="translate(-96.11 -196.81)"/><path class="cls-1" d="M830.33,229.16h89.2v27.12H862.94v13.19h56.59v25.2H862.94v13.19h56.6V335H830.33Z" transform="translate(-96.11 -196.81)"/><path class="cls-1" d="M925,229.16h53.5c35.27,0,47.73,26.09,47.73,52.76,0,32.46-17.19,53.06-54.09,53.06H925Zm32.6,78.7h12.75c20.31,0,23.28-16.46,23.28-26.4,0-6.65-2.09-25.18-25.65-25.18H957.61Z" transform="translate(-96.11 -196.81)"/><path class="cls-1" d="M1073.09,294.2l-9.95-16.49-9.7,16.49h-23.88l22.67-33.34L1030.4,229h23.89l8.85,15.77,9.11-15.77h23.88l-21.83,31.9L1097,294.2Z" transform="translate(-96.11 -196.81)"/><text class="cls-2" transform="translate(0 137.95)"><tspan class="cls-3">W</tspan><tspan x="150.85" y="0">h</tspan><tspan class="cls-4" x="248.23" y="0">a</tspan><tspan x="343.11" y="0">t is</tspan></text></svg>